<svg width="1174" height="3017" viewBox="0 0 1174 3017" fill="none" xmlns="http://www.w3.org/2000/svg">
<rect x="902" y="379" width="270" height="263" rx="20" fill="url(#paint0_linear_250_11278)" fill-opacity="0.9"/>
<rect x="902" y="379" width="270" height="263" rx="20" fill="black" fill-opacity="0.2"/>
<rect x="702" y="379" width="170" height="263" rx="20" fill="url(#paint1_linear_250_11278)" fill-opacity="0.9"/>
<rect x="702" y="379" width="170" height="263" rx="20" fill="black" fill-opacity="0.2"/>
<rect x="502" y="668" width="170" height="250" rx="20" fill="url(#paint2_linear_250_11278)" fill-opacity="0.9"/>
<rect x="502" y="668" width="170" height="250" rx="20" fill="black" fill-opacity="0.2"/>
<rect x="700" y="938" width="470" height="250" rx="20" fill="url(#paint3_linear_250_11278)" fill-opacity="0.9"/>
<rect x="700" y="938" width="470" height="250" rx="20" fill="black" fill-opacity="0.2"/>
<rect x="1002" y="668" width="170" height="250" rx="20" fill="url(#paint4_linear_250_11278)" fill-opacity="0.9"/>
<rect x="1002" y="668" width="170" height="250" rx="20" fill="black" fill-opacity="0.2"/>
<rect x="2" y="392" width="270" height="250" rx="20" fill="url(#paint5_linear_250_11278)" fill-opacity="0.9"/>
<rect x="2" y="392" width="270" height="250" rx="20" fill="black" fill-opacity="0.2"/>
<rect x="702" y="668" width="270" height="250" rx="20" fill="url(#paint6_linear_250_11278)" fill-opacity="0.9"/>
<rect x="702" y="668" width="270" height="250" rx="20" fill="black" fill-opacity="0.2"/>
<rect x="702" y="109" width="470" height="250" rx="20" fill="url(#paint7_linear_250_11278)" fill-opacity="0.9"/>
<rect x="702" y="109" width="470" height="250" rx="20" fill="black" fill-opacity="0.2"/>
<rect x="302" y="116" width="370" height="526" rx="20" fill="url(#paint8_linear_250_11278)" fill-opacity="0.9"/>
<rect x="302" y="116" width="370" height="526" rx="20" fill="black" fill-opacity="0.2"/>
<rect x="2" y="109" width="270" height="250" rx="20" fill="url(#paint9_linear_250_11278)" fill-opacity="0.9"/>
<rect x="2" y="109" width="270" height="250" rx="20" fill="black" fill-opacity="0.2"/>
<rect x="900" y="1207" width="270" height="263" rx="20" fill="url(#paint10_linear_250_11278)" fill-opacity="0.9"/>
<rect x="900" y="1207" width="270" height="263" rx="20" fill="black" fill-opacity="0.2"/>
<rect x="700" y="1207" width="170" height="263" rx="20" fill="url(#paint11_linear_250_11278)" fill-opacity="0.9"/>
<rect x="700" y="1207" width="170" height="263" rx="20" fill="black" fill-opacity="0.2"/>
<rect y="1220" width="270" height="250" rx="20" fill="url(#paint12_linear_250_11278)" fill-opacity="0.9"/>
<rect y="1220" width="270" height="250" rx="20" fill="black" fill-opacity="0.2"/>
<rect y="668" width="470" height="250" rx="20" fill="url(#paint13_linear_250_11278)" fill-opacity="0.9"/>
<rect y="668" width="470" height="250" rx="20" fill="black" fill-opacity="0.2"/>
<rect x="300" y="944" width="370" height="526" rx="20" fill="url(#paint14_linear_250_11278)" fill-opacity="0.9"/>
<rect x="300" y="944" width="370" height="526" rx="20" fill="black" fill-opacity="0.2"/>
<rect y="944" width="270" height="250" rx="20" fill="url(#paint15_linear_250_11278)" fill-opacity="0.9"/>
<rect y="944" width="270" height="250" rx="20" fill="black" fill-opacity="0.2"/>
<rect x="902" y="1817" width="270" height="263" rx="20" fill="url(#paint16_linear_250_11278)" fill-opacity="0.9"/>
<rect x="902" y="1817" width="270" height="263" rx="20" fill="black" fill-opacity="0.2"/>
<rect x="702" y="1817" width="170" height="263" rx="20" fill="url(#paint17_linear_250_11278)" fill-opacity="0.9"/>
<rect x="702" y="1817" width="170" height="263" rx="20" fill="black" fill-opacity="0.2"/>
<rect x="502" y="2106" width="170" height="250" rx="20" fill="url(#paint18_linear_250_11278)" fill-opacity="0.9"/>
<rect x="502" y="2106" width="170" height="250" rx="20" fill="black" fill-opacity="0.2"/>
<rect x="700" y="2376" width="470" height="250" rx="20" fill="url(#paint19_linear_250_11278)" fill-opacity="0.9"/>
<rect x="700" y="2376" width="470" height="250" rx="20" fill="black" fill-opacity="0.2"/>
<rect x="1002" y="2106" width="170" height="250" rx="20" fill="url(#paint20_linear_250_11278)" fill-opacity="0.9"/>
<rect x="1002" y="2106" width="170" height="250" rx="20" fill="black" fill-opacity="0.2"/>
<rect x="2" y="1830" width="270" height="250" rx="20" fill="url(#paint21_linear_250_11278)" fill-opacity="0.9"/>
<rect x="2" y="1830" width="270" height="250" rx="20" fill="black" fill-opacity="0.2"/>
<rect x="702" y="2106" width="270" height="250" rx="20" fill="url(#paint22_linear_250_11278)" fill-opacity="0.9"/>
<rect x="702" y="2106" width="270" height="250" rx="20" fill="black" fill-opacity="0.2"/>
<rect x="702" y="1547" width="470" height="250" rx="20" fill="url(#paint23_linear_250_11278)" fill-opacity="0.9"/>
<rect x="702" y="1547" width="470" height="250" rx="20" fill="black" fill-opacity="0.2"/>
<rect x="302" y="1554" width="370" height="526" rx="20" fill="url(#paint24_linear_250_11278)" fill-opacity="0.9"/>
<rect x="302" y="1554" width="370" height="526" rx="20" fill="black" fill-opacity="0.2"/>
<rect x="2" y="1547" width="270" height="250" rx="20" fill="url(#paint25_linear_250_11278)" fill-opacity="0.9"/>
<rect x="2" y="1547" width="270" height="250" rx="20" fill="black" fill-opacity="0.2"/>
<rect x="900" y="2645" width="270" height="263" rx="20" fill="url(#paint26_linear_250_11278)" fill-opacity="0.9"/>
<rect x="900" y="2645" width="270" height="263" rx="20" fill="black" fill-opacity="0.2"/>
<rect x="700" y="2645" width="170" height="263" rx="20" fill="url(#paint27_linear_250_11278)" fill-opacity="0.9"/>
<rect x="700" y="2645" width="170" height="263" rx="20" fill="black" fill-opacity="0.2"/>
<rect y="2658" width="270" height="250" rx="20" fill="url(#paint28_linear_250_11278)" fill-opacity="0.9"/>
<rect y="2658" width="270" height="250" rx="20" fill="black" fill-opacity="0.2"/>
<rect y="2106" width="470" height="250" rx="20" fill="url(#paint29_linear_250_11278)" fill-opacity="0.9"/>
<rect y="2106" width="470" height="250" rx="20" fill="black" fill-opacity="0.2"/>
<rect x="300" y="2382" width="370" height="526" rx="20" fill="url(#paint30_linear_250_11278)" fill-opacity="0.9"/>
<rect x="300" y="2382" width="370" height="526" rx="20" fill="black" fill-opacity="0.2"/>
<rect y="2382" width="270" height="250" rx="20" fill="url(#paint31_linear_250_11278)" fill-opacity="0.9"/>
<rect y="2382" width="270" height="250" rx="20" fill="black" fill-opacity="0.2"/>
<defs>
<linearGradient id="paint0_linear_250_11278" x1="1037" y1="467" x2="1037" y2="649.5" gradientUnits="userSpaceOnUse">
<stop offset="0.336147" stop-color="#1A1A19" stop-opacity="0"/>
<stop offset="1" stop-color="#141412"/>
</linearGradient>
<linearGradient id="paint1_linear_250_11278" x1="787" y1="467" x2="787" y2="649.5" gradientUnits="userSpaceOnUse">
<stop offset="0.336147" stop-color="#1A1A19" stop-opacity="0"/>
<stop offset="1" stop-color="#141412"/>
</linearGradient>
<linearGradient id="paint2_linear_250_11278" x1="587" y1="751.65" x2="587" y2="925.129" gradientUnits="userSpaceOnUse">
<stop offset="0.336147" stop-color="#1A1A19" stop-opacity="0"/>
<stop offset="1" stop-color="#141412"/>
</linearGradient>
<linearGradient id="paint3_linear_250_11278" x1="935" y1="1021.65" x2="935" y2="1195.13" gradientUnits="userSpaceOnUse">
<stop offset="0.336147" stop-color="#1A1A19" stop-opacity="0"/>
<stop offset="1" stop-color="#141412"/>
</linearGradient>
<linearGradient id="paint4_linear_250_11278" x1="1087" y1="751.65" x2="1087" y2="925.129" gradientUnits="userSpaceOnUse">
<stop offset="0.336147" stop-color="#1A1A19" stop-opacity="0"/>
<stop offset="1" stop-color="#141412"/>
</linearGradient>
<linearGradient id="paint5_linear_250_11278" x1="137" y1="475.65" x2="137" y2="649.129" gradientUnits="userSpaceOnUse">
<stop offset="0.336147" stop-color="#1A1A19" stop-opacity="0"/>
<stop offset="1" stop-color="#141412"/>
</linearGradient>
<linearGradient id="paint6_linear_250_11278" x1="837" y1="751.65" x2="837" y2="925.129" gradientUnits="userSpaceOnUse">
<stop offset="0.336147" stop-color="#1A1A19" stop-opacity="0"/>
<stop offset="1" stop-color="#141412"/>
</linearGradient>
<linearGradient id="paint7_linear_250_11278" x1="937" y1="192.65" x2="937" y2="366.129" gradientUnits="userSpaceOnUse">
<stop offset="0.336147" stop-color="#1A1A19" stop-opacity="0"/>
<stop offset="1" stop-color="#141412"/>
</linearGradient>
<linearGradient id="paint8_linear_250_11278" x1="487" y1="292" x2="487" y2="657" gradientUnits="userSpaceOnUse">
<stop offset="0.336147" stop-color="#1A1A19" stop-opacity="0"/>
<stop offset="1" stop-color="#141412"/>
</linearGradient>
<linearGradient id="paint9_linear_250_11278" x1="137" y1="192.65" x2="137" y2="366.129" gradientUnits="userSpaceOnUse">
<stop offset="0.336147" stop-color="#1A1A19" stop-opacity="0"/>
<stop offset="1" stop-color="#141412"/>
</linearGradient>
<linearGradient id="paint10_linear_250_11278" x1="1035" y1="1295" x2="1035" y2="1477.5" gradientUnits="userSpaceOnUse">
<stop offset="0.336147" stop-color="#1A1A19" stop-opacity="0"/>
<stop offset="1" stop-color="#141412"/>
</linearGradient>
<linearGradient id="paint11_linear_250_11278" x1="785" y1="1295" x2="785" y2="1477.5" gradientUnits="userSpaceOnUse">
<stop offset="0.336147" stop-color="#1A1A19" stop-opacity="0"/>
<stop offset="1" stop-color="#141412"/>
</linearGradient>
<linearGradient id="paint12_linear_250_11278" x1="135" y1="1303.65" x2="135" y2="1477.13" gradientUnits="userSpaceOnUse">
<stop offset="0.336147" stop-color="#1A1A19" stop-opacity="0"/>
<stop offset="1" stop-color="#141412"/>
</linearGradient>
<linearGradient id="paint13_linear_250_11278" x1="235" y1="751.65" x2="235" y2="925.129" gradientUnits="userSpaceOnUse">
<stop offset="0.336147" stop-color="#1A1A19" stop-opacity="0"/>
<stop offset="1" stop-color="#141412"/>
</linearGradient>
<linearGradient id="paint14_linear_250_11278" x1="485" y1="1120" x2="485" y2="1485" gradientUnits="userSpaceOnUse">
<stop offset="0.336147" stop-color="#1A1A19" stop-opacity="0"/>
<stop offset="1" stop-color="#141412"/>
</linearGradient>
<linearGradient id="paint15_linear_250_11278" x1="135" y1="1027.65" x2="135" y2="1201.13" gradientUnits="userSpaceOnUse">
<stop offset="0.336147" stop-color="#1A1A19" stop-opacity="0"/>
<stop offset="1" stop-color="#141412"/>
</linearGradient>
<linearGradient id="paint16_linear_250_11278" x1="1037" y1="1905" x2="1037" y2="2087.5" gradientUnits="userSpaceOnUse">
<stop offset="0.336147" stop-color="#1A1A19" stop-opacity="0"/>
<stop offset="1" stop-color="#141412"/>
</linearGradient>
<linearGradient id="paint17_linear_250_11278" x1="787" y1="1905" x2="787" y2="2087.5" gradientUnits="userSpaceOnUse">
<stop offset="0.336147" stop-color="#1A1A19" stop-opacity="0"/>
<stop offset="1" stop-color="#141412"/>
</linearGradient>
<linearGradient id="paint18_linear_250_11278" x1="587" y1="2189.65" x2="587" y2="2363.13" gradientUnits="userSpaceOnUse">
<stop offset="0.336147" stop-color="#1A1A19" stop-opacity="0"/>
<stop offset="1" stop-color="#141412"/>
</linearGradient>
<linearGradient id="paint19_linear_250_11278" x1="935" y1="2459.65" x2="935" y2="2633.13" gradientUnits="userSpaceOnUse">
<stop offset="0.336147" stop-color="#1A1A19" stop-opacity="0"/>
<stop offset="1" stop-color="#141412"/>
</linearGradient>
<linearGradient id="paint20_linear_250_11278" x1="1087" y1="2189.65" x2="1087" y2="2363.13" gradientUnits="userSpaceOnUse">
<stop offset="0.336147" stop-color="#1A1A19" stop-opacity="0"/>
<stop offset="1" stop-color="#141412"/>
</linearGradient>
<linearGradient id="paint21_linear_250_11278" x1="137" y1="1913.65" x2="137" y2="2087.13" gradientUnits="userSpaceOnUse">
<stop offset="0.336147" stop-color="#1A1A19" stop-opacity="0"/>
<stop offset="1" stop-color="#141412"/>
</linearGradient>
<linearGradient id="paint22_linear_250_11278" x1="837" y1="2189.65" x2="837" y2="2363.13" gradientUnits="userSpaceOnUse">
<stop offset="0.336147" stop-color="#1A1A19" stop-opacity="0"/>
<stop offset="1" stop-color="#141412"/>
</linearGradient>
<linearGradient id="paint23_linear_250_11278" x1="937" y1="1630.65" x2="937" y2="1804.13" gradientUnits="userSpaceOnUse">
<stop offset="0.336147" stop-color="#1A1A19" stop-opacity="0"/>
<stop offset="1" stop-color="#141412"/>
</linearGradient>
<linearGradient id="paint24_linear_250_11278" x1="487" y1="1730" x2="487" y2="2095" gradientUnits="userSpaceOnUse">
<stop offset="0.336147" stop-color="#1A1A19" stop-opacity="0"/>
<stop offset="1" stop-color="#141412"/>
</linearGradient>
<linearGradient id="paint25_linear_250_11278" x1="137" y1="1630.65" x2="137" y2="1804.13" gradientUnits="userSpaceOnUse">
<stop offset="0.336147" stop-color="#1A1A19" stop-opacity="0"/>
<stop offset="1" stop-color="#141412"/>
</linearGradient>
<linearGradient id="paint26_linear_250_11278" x1="1035" y1="2733" x2="1035" y2="2915.5" gradientUnits="userSpaceOnUse">
<stop offset="0.336147" stop-color="#1A1A19" stop-opacity="0"/>
<stop offset="1" stop-color="#141412"/>
</linearGradient>
<linearGradient id="paint27_linear_250_11278" x1="785" y1="2733" x2="785" y2="2915.5" gradientUnits="userSpaceOnUse">
<stop offset="0.336147" stop-color="#1A1A19" stop-opacity="0"/>
<stop offset="1" stop-color="#141412"/>
</linearGradient>
<linearGradient id="paint28_linear_250_11278" x1="135" y1="2741.65" x2="135" y2="2915.13" gradientUnits="userSpaceOnUse">
<stop offset="0.336147" stop-color="#1A1A19" stop-opacity="0"/>
<stop offset="1" stop-color="#141412"/>
</linearGradient>
<linearGradient id="paint29_linear_250_11278" x1="235" y1="2189.65" x2="235" y2="2363.13" gradientUnits="userSpaceOnUse">
<stop offset="0.336147" stop-color="#1A1A19" stop-opacity="0"/>
<stop offset="1" stop-color="#141412"/>
</linearGradient>
<linearGradient id="paint30_linear_250_11278" x1="485" y1="2558" x2="485" y2="2923" gradientUnits="userSpaceOnUse">
<stop offset="0.336147" stop-color="#1A1A19" stop-opacity="0"/>
<stop offset="1" stop-color="#141412"/>
</linearGradient>
<linearGradient id="paint31_linear_250_11278" x1="135" y1="2465.65" x2="135" y2="2639.13" gradientUnits="userSpaceOnUse">
<stop offset="0.336147" stop-color="#1A1A19" stop-opacity="0"/>
<stop offset="1" stop-color="#141412"/>
</linearGradient>
</defs>
</svg>
